<svg xmlns="http://www.w3.org/2000/svg" xmlns:xlink="http://www.w3.org/1999/xlink" width="1080" zoomAndPan="magnify" viewBox="0 0 810 809.999993" height="1080" preserveAspectRatio="xMidYMid meet" version="1.0"><defs><clipPath id="aa70d4d103"><path d="M 165.148438 189.226562 L 618.820312 189.226562 L 618.820312 604.652344 L 165.148438 604.652344 Z M 165.148438 189.226562 " clip-rule="nonzero"/></clipPath><clipPath id="c9b0d162a4"><path d="M 429 222.824219 C 369 222.226562 363.523438 222.675781 354.449219 224.476562 C 342 226.949219 320.625 233.625 311.175781 237.226562 C 306.449219 239.023438 305.25 239.625 300.75 242.175781 C 291.523438 247.273438 271.273438 260.023438 259.875 268.574219 C 251.023438 275.324219 244.726562 280.800781 237.375 288.300781 C 229.050781 296.773438 219.300781 308.324219 212.925781 317.398438 C 207.824219 324.601562 204.375 330 200.925781 337.949219 C 196.800781 347.476562 193.050781 361.5 191.023438 371.101562 C 189.449219 378.375 189 382.726562 188.398438 390.523438 C 187.5 402.375 186.601562 423.601562 187.574219 435.226562 C 188.25 442.800781 189.75 448.199219 191.25 453.824219 C 192.523438 458.773438 193.949219 462.976562 195.675781 467.324219 C 197.324219 471.75 199.351562 476.023438 201.375 480.148438 C 203.398438 484.199219 205.273438 487.800781 207.824219 491.925781 C 210.675781 496.726562 213.976562 501.523438 217.949219 507.226562 C 223.273438 514.875 231.226562 526.199219 237.148438 533.324219 C 241.648438 538.648438 245.625 543.226562 249.824219 546.75 C 253.351562 549.675781 256.875 551.550781 260.398438 553.5 C 263.773438 555.375 265.949219 556.5 270.601562 558.449219 C 280.199219 562.425781 301.125 570.300781 315.449219 573.898438 C 328.125 577.050781 337.648438 578.398438 352.125 579.824219 C 373.125 581.851562 408.75 582.148438 429.226562 582.226562 C 442.875 582.300781 453.898438 582.523438 463.273438 581.476562 C 469.875 580.726562 474.976562 579.675781 480.148438 578.023438 C 484.648438 576.601562 487.800781 574.875 492.523438 572.550781 C 499.199219 569.398438 508.125 565.050781 516.148438 560.175781 C 525.148438 554.625 536.925781 546.074219 543.675781 540.675781 C 547.949219 537.375 550.050781 535.875 553.648438 532.050781 C 558.898438 526.351562 566.699219 516.226562 571.125 508.949219 C 574.574219 503.25 576.601562 497.925781 578.925781 492.601562 C 581.101562 487.648438 582.898438 483.976562 584.625 478.199219 C 587.175781 469.726562 590.101562 456.601562 591.523438 446.324219 C 592.875 436.875 592.949219 429.75 593.324219 418.949219 C 593.925781 403.199219 594.675781 373.125 593.851562 360.898438 C 593.398438 355.273438 593.175781 353.398438 591.898438 348.601562 C 590.023438 341.25 586.199219 329.925781 581.851562 321.601562 C 577.648438 313.5 571.800781 306.148438 566.476562 299.023438 C 561.375 292.199219 555.449219 284.324219 550.574219 279.523438 C 547.273438 276.226562 545.175781 275.625 541.125 272.101562 C 532.949219 265.050781 514.199219 246.226562 505.949219 238.726562 C 501.601562 234.824219 499.273438 232.648438 495.824219 230.023438 C 492.523438 227.550781 489.898438 225.523438 485.625 223.5 C 479.625 220.5 471.523438 216.976562 462.300781 215.324219 C 449.925781 213.148438 424.125 215.324219 417.300781 214.726562 C 415.273438 214.5 414.601562 214.5 413.324219 214.050781 C 412.125 213.675781 410.851562 213 409.800781 212.175781 C 408.75 211.351562 407.773438 210.375 407.023438 209.25 C 406.273438 208.199219 405.75 206.925781 405.375 205.648438 C 405 204.375 404.851562 202.949219 404.925781 201.675781 C 405 200.324219 405.300781 198.976562 405.824219 197.699219 C 406.273438 196.5 407.023438 195.300781 407.851562 194.324219 C 408.75 193.273438 409.800781 192.375 410.925781 191.699219 C 412.050781 191.023438 413.324219 190.5 414.675781 190.199219 C 415.949219 189.976562 417.375 189.898438 418.648438 190.050781 C 420 190.125 421.351562 190.5 422.550781 191.101562 C 423.675781 191.625 424.875 192.449219 425.851562 193.351562 C 426.75 194.25 427.648438 195.375 428.25 196.5 C 428.851562 197.699219 429.300781 199.050781 429.523438 200.324219 C 429.75 201.601562 429.75 203.023438 429.523438 204.375 C 429.300781 205.648438 428.851562 207 428.25 208.125 C 427.648438 209.324219 426.75 210.449219 425.851562 211.351562 C 424.875 212.25 423.675781 213 422.476562 213.601562 C 421.273438 214.125 419.925781 214.5 418.648438 214.648438 C 417.300781 214.800781 415.949219 214.726562 414.601562 214.425781 C 413.324219 214.125 412.050781 213.601562 410.925781 212.925781 C 409.800781 212.25 408.675781 211.351562 407.851562 210.375 C 407.023438 209.324219 406.273438 208.125 405.824219 206.925781 C 405.300781 205.648438 405 204.300781 404.925781 203.023438 C 404.851562 201.675781 405 200.25 405.375 198.976562 C 405.75 197.699219 406.351562 196.425781 407.023438 195.375 C 407.773438 194.25 408.75 193.273438 409.800781 192.449219 C 410.851562 191.699219 412.125 191.023438 413.324219 190.574219 C 414.601562 190.199219 415.273438 190.125 417.300781 189.976562 C 423.976562 189.375 449.773438 188.773438 460.425781 189.976562 C 466.800781 190.648438 470.550781 191.851562 475.5 193.273438 C 480.375 194.625 485.101562 196.199219 489.824219 198.074219 C 494.476562 199.949219 499.273438 202.125 503.625 204.675781 C 507.824219 207.148438 511.125 209.476562 515.625 213.148438 C 522.226562 218.550781 532.648438 228.824219 538.574219 234.898438 C 542.550781 238.949219 544.199219 241.648438 548.175781 245.550781 C 553.648438 250.875 562.574219 256.726562 568.949219 263.25 C 575.476562 270 580.949219 277.425781 586.726562 285.375 C 592.949219 294 600.074219 303.675781 604.875 313.351562 C 609.523438 322.574219 613.125 333.449219 615.300781 342.074219 C 617.023438 348.976562 617.550781 353.25 618.074219 360.898438 C 618.976562 372.75 618.449219 391.351562 617.925781 406.425781 C 617.476562 421.273438 617.023438 436.800781 615.074219 450.675781 C 613.351562 463.199219 610.273438 476.625 607.425781 486.074219 C 605.398438 492.601562 603.375 496.875 601.050781 502.273438 C 598.648438 507.75 596.773438 512.773438 593.324219 518.625 C 588.824219 526.273438 580.648438 537.449219 575.324219 543.675781 C 571.726562 547.875 569.175781 550.125 565.425781 553.425781 C 560.773438 557.476562 555.523438 561.449219 549.375 565.875 C 541.425781 571.574219 529.050781 579.75 521.324219 584.175781 C 516.148438 587.175781 512.625 588.898438 508.050781 590.925781 C 503.476562 593.023438 498.976562 594.75 494.023438 596.476562 C 488.398438 598.351562 481.425781 600.375 476.101562 601.574219 C 471.824219 602.550781 468.601562 603.074219 464.476562 603.601562 C 459.75 604.125 455.625 604.5 449.175781 604.574219 C 438 604.648438 417.976562 602.851562 403.574219 602.699219 C 390.601562 602.625 376.574219 603.601562 366.601562 603.601562 C 359.851562 603.523438 356.398438 603.675781 349.574219 603 C 339.300781 602.023438 324.375 600.074219 310.800781 596.773438 C 295.199219 592.949219 272.398438 584.851562 261.523438 580.273438 C 255.898438 577.949219 253.273438 576.449219 249 573.976562 C 244.273438 571.199219 238.574219 567.449219 234.375 564.148438 C 230.925781 561.449219 228.449219 559.351562 225.375 555.976562 C 221.398438 551.625 217.648438 545.925781 213.074219 539.773438 C 207.226562 531.75 198.824219 520.125 193.425781 512.023438 C 189.375 506.023438 186.523438 502.273438 183.300781 495.898438 C 179.101562 487.726562 174.074219 475.5 171.449219 466.726562 C 169.351562 459.976562 168.449219 453.824219 167.476562 448.199219 C 166.726562 443.476562 166.199219 440.625 165.898438 435.226562 C 165.375 426 165.449219 410.101562 166.351562 398.101562 C 167.25 386.699219 168.375 376.125 171 364.875 C 173.851562 352.726562 178.351562 338.324219 183.375 327.675781 C 187.425781 318.976562 191.773438 313.125 197.398438 305.101562 C 204.449219 295.199219 215.625 281.175781 223.050781 273.074219 C 228.074219 267.523438 232.199219 263.925781 236.625 260.023438 C 240.675781 256.425781 243.148438 254.25 248.476562 250.425781 C 258.300781 243.300781 281.324219 228.375 291.898438 222.75 C 297.523438 219.675781 300.074219 218.699219 305.476562 216.675781 C 313.199219 213.75 325.800781 210.300781 333.898438 207.75 C 340.050781 205.875 344.550781 204.300781 350.101562 202.875 C 355.800781 201.449219 360.75 199.949219 367.800781 199.273438 C 377.699219 198.375 392.851562 199.425781 404.25 199.875 C 414.375 200.175781 428.550781 200.398438 432.824219 201.375 C 434.101562 201.675781 434.398438 201.898438 435.226562 202.5 C 436.425781 203.25 438.148438 204.976562 438.976562 206.175781 C 439.574219 207 439.800781 207.601562 440.101562 208.574219 C 440.398438 210 440.699219 212.175781 440.398438 213.824219 C 440.101562 215.476562 439.125 217.425781 438.300781 218.625 C 437.699219 219.449219 437.101562 219.976562 436.425781 220.5 C 435.75 221.023438 435.074219 221.550781 434.175781 221.925781 C 432.824219 222.375 429 222.824219 429 222.824219 " clip-rule="nonzero"/></clipPath><clipPath id="7d8959507d"><path d="M 298.039062 344.167969 L 320.078125 344.167969 L 320.078125 366.761719 L 298.039062 366.761719 Z M 298.039062 344.167969 " clip-rule="nonzero"/></clipPath><clipPath id="48403d6fae"><path d="M 320.023438 352.125 C 320.023438 359.175781 319.199219 360.976562 318.148438 362.398438 C 317.101562 363.75 315.523438 364.949219 313.949219 365.699219 C 312.300781 366.449219 310.351562 366.75 308.625 366.675781 C 306.898438 366.601562 304.949219 366 303.449219 365.101562 C 302.023438 364.199219 300.601562 362.773438 299.699219 361.273438 C 298.800781 359.773438 298.199219 357.824219 298.050781 356.101562 C 297.976562 354.375 298.351562 352.425781 299.023438 350.851562 C 299.773438 349.199219 300.976562 347.625 302.398438 346.574219 C 303.75 345.523438 305.550781 344.699219 307.273438 344.398438 C 309 344.101562 311.023438 344.175781 312.675781 344.699219 C 314.324219 345.226562 317.25 347.476562 317.25 347.476562 " clip-rule="nonzero"/></clipPath><clipPath id="4946a4fa81"><path d="M 473.015625 370.117188 L 495.050781 370.117188 L 495.050781 392.710938 L 473.015625 392.710938 Z M 473.015625 370.117188 " clip-rule="nonzero"/></clipPath><clipPath id="ac909cb1e3"><path d="M 495 378.074219 C 495.074219 385.125 494.25 387 493.125 388.351562 C 492.074219 389.699219 490.5 390.976562 488.925781 391.648438 C 487.351562 392.398438 485.324219 392.773438 483.601562 392.625 C 481.875 392.550781 479.925781 391.949219 478.5 391.050781 C 477 390.148438 475.574219 388.726562 474.675781 387.226562 C 473.773438 385.726562 473.175781 383.851562 473.023438 382.125 C 472.949219 380.324219 473.324219 378.375 474 376.800781 C 474.75 375.226562 475.949219 373.648438 477.375 372.523438 C 478.726562 371.476562 480.523438 370.648438 482.25 370.351562 C 483.976562 370.050781 486 370.125 487.648438 370.648438 C 489.300781 371.175781 492.226562 373.5 492.226562 373.5 " clip-rule="nonzero"/></clipPath><clipPath id="494c128714"><path d="M 337 417.652344 L 446.875 417.652344 L 446.875 505.132812 L 337 505.132812 Z M 337 417.652344 " clip-rule="nonzero"/></clipPath><clipPath id="bc56279ef6"><path d="M 360.523438 429.300781 C 361.273438 442.800781 363.824219 450.226562 365.550781 455.476562 C 366.976562 459.75 368.101562 463.425781 369.898438 467.175781 C 371.773438 470.851562 373.425781 475.5 376.574219 477.523438 C 379.800781 479.699219 384.898438 479.773438 389.023438 479.625 C 393.074219 479.476562 397.800781 478.949219 401.023438 476.699219 C 404.324219 474.449219 406.273438 469.648438 408.449219 465.898438 C 410.550781 462.226562 412.199219 458.550781 413.851562 454.574219 C 415.574219 450.300781 416.773438 445.050781 418.5 440.925781 C 419.925781 437.398438 421.648438 433.5 423.226562 431.324219 C 424.273438 429.898438 425.101562 429.148438 426.226562 428.324219 C 427.351562 427.574219 428.625 426.898438 429.976562 426.523438 C 431.25 426.074219 432.75 425.925781 434.101562 425.925781 C 435.449219 426 436.875 426.300781 438.148438 426.75 C 439.5 427.199219 440.699219 427.949219 441.824219 428.773438 C 442.875 429.675781 443.851562 430.800781 444.601562 431.925781 C 445.351562 433.050781 445.875 434.398438 446.25 435.75 C 446.550781 437.101562 446.625 438.523438 446.550781 439.875 C 446.398438 441.300781 446.101562 442.726562 445.5 443.925781 C 444.976562 445.199219 444.226562 446.476562 443.25 447.449219 C 442.351562 448.5 441.226562 449.398438 440.023438 450.074219 C 438.824219 450.75 437.476562 451.199219 436.125 451.5 C 434.773438 451.726562 433.273438 451.800781 431.925781 451.574219 C 430.574219 451.425781 429.148438 450.976562 427.949219 450.375 C 426.75 449.773438 425.550781 448.875 424.574219 447.898438 C 423.601562 446.925781 422.773438 445.800781 422.175781 444.523438 C 421.574219 443.324219 421.125 441.898438 420.976562 440.550781 C 420.75 439.199219 420.824219 437.699219 421.050781 436.351562 C 421.351562 435 421.800781 433.648438 422.476562 432.449219 C 423.148438 431.25 424.125 430.125 425.101562 429.226562 C 426.148438 428.324219 427.351562 427.5 428.625 426.976562 C 429.898438 426.449219 431.324219 426.074219 432.675781 426 C 434.023438 425.851562 435.523438 426 436.875 426.375 C 438.148438 426.675781 439.5 427.273438 440.699219 428.023438 C 441.824219 428.699219 442.875 429.75 443.773438 430.800781 C 444.601562 431.851562 445.351562 433.125 445.800781 434.398438 C 446.25 435.675781 446.550781 437.175781 446.625 438.523438 C 446.625 439.875 446.550781 441.148438 446.023438 442.648438 C 445.351562 444.675781 443.398438 446.550781 442.125 449.25 C 440.324219 453.300781 439.199219 459.824219 437.25 464.773438 C 435.300781 469.574219 433.125 474.300781 430.425781 478.726562 C 427.726562 483.148438 424.425781 487.800781 420.976562 491.476562 C 417.824219 494.773438 414.523438 497.851562 410.699219 500.101562 C 406.875 502.273438 402.300781 503.925781 398.023438 504.675781 C 393.898438 505.351562 389.699219 504.824219 385.574219 504.601562 C 381.449219 504.375 377.175781 504.523438 373.273438 503.25 C 369.449219 502.050781 365.625 499.726562 362.476562 497.324219 C 359.398438 494.925781 356.773438 492.148438 354.375 489 C 351.824219 485.476562 350.023438 481.726562 347.773438 476.851562 C 344.625 470.101562 339.824219 459.976562 338.175781 451.648438 C 336.601562 444.074219 337.199219 433.125 337.351562 429.300781 C 337.425781 427.875 337.351562 427.5 337.648438 426.523438 C 338.101562 425.023438 339.074219 422.925781 340.273438 421.574219 C 341.476562 420.226562 343.425781 419.023438 344.851562 418.425781 C 345.824219 417.976562 346.5 417.824219 347.550781 417.75 C 349.050781 417.675781 351.375 417.75 353.101562 418.425781 C 354.75 419.023438 356.476562 420.226562 357.601562 421.574219 C 358.800781 422.925781 359.773438 425.023438 360.226562 426.523438 C 360.523438 427.5 360.523438 429.300781 360.523438 429.300781 " clip-rule="nonzero"/></clipPath></defs><g clip-path="url(#aa70d4d103)"><g clip-path="url(#c9b0d162a4)"><path fill="#1e1e1e" d="M 162.898438 186.976562 L 621.066406 186.976562 L 621.066406 607.648438 L 162.898438 607.648438 Z M 162.898438 186.976562 " fill-opacity="1" fill-rule="nonzero"/></g></g><g clip-path="url(#7d8959507d)"><g clip-path="url(#48403d6fae)"><path fill="#1e1e1e" d="M 295.050781 341.398438 L 323.398438 341.398438 L 323.398438 369.75 L 295.050781 369.75 Z M 295.050781 341.398438 " fill-opacity="1" fill-rule="nonzero"/></g></g><g clip-path="url(#4946a4fa81)"><g clip-path="url(#ac909cb1e3)"><path fill="#1e1e1e" d="M 470.023438 367.351562 L 498.375 367.351562 L 498.375 395.699219 L 470.023438 395.699219 Z M 470.023438 367.351562 " fill-opacity="1" fill-rule="nonzero"/></g></g><g clip-path="url(#494c128714)"><g clip-path="url(#bc56279ef6)"><path fill="#1e1e1e" d="M 334.351562 414.75 L 449.78125 414.75 L 449.78125 507.675781 L 334.351562 507.675781 Z M 334.351562 414.75 " fill-opacity="1" fill-rule="nonzero"/></g></g></svg>